<svg width="149" height="162" viewBox="0 0 149 162" fill="none" xmlns="http://www.w3.org/2000/svg">
<path d="M148.485 104.399C148.485 140.13 120.688 161.763 85.6155 161.763C50.5429 161.763 18.9358 127.19 18.9358 91.4603C18.9358 55.73 50.5429 32.3721 85.6155 32.3721C120.688 32.3721 148.485 68.6691 148.485 104.399Z" fill="#EA571C"/>
<path d="M91.1842 91.848C91.1842 95.9707 87.8379 99.3129 83.7102 99.3129C79.5824 99.3129 76.2362 95.9707 76.2362 91.848C76.2362 87.7253 79.5824 84.3832 83.7102 84.3832C87.8379 84.3832 91.1842 87.7253 91.1842 91.848Z" fill="#FFF6F2" fill-opacity="0.05"/>
<path d="M106.132 96.8246C106.132 109.193 96.0935 119.219 83.7102 119.219C71.3269 119.219 61.2882 109.193 61.2882 96.8246C61.2882 84.4564 71.3269 74.4301 83.7102 74.4301C96.0935 74.4301 106.132 84.4564 106.132 96.8246Z" fill="#FFF6F2" fill-opacity="0.05"/>
<path d="M66.5724 111.266C71.6339 108.409 77.4813 106.778 83.7102 106.778C89.939 106.778 95.7865 108.409 100.848 111.266M91.1842 91.848C91.1842 95.9707 87.8379 99.3129 83.7102 99.3129C79.5824 99.3129 76.2362 95.9707 76.2362 91.848C76.2362 87.7253 79.5824 84.3832 83.7102 84.3832C87.8379 84.3832 91.1842 87.7253 91.1842 91.848ZM106.132 96.8246C106.132 109.193 96.0935 119.219 83.7102 119.219C71.3269 119.219 61.2882 109.193 61.2882 96.8246C61.2882 84.4564 71.3269 74.4301 83.7102 74.4301C96.0935 74.4301 106.132 84.4564 106.132 96.8246Z" stroke="#FBFBF7" stroke-width="3" stroke-linecap="round" stroke-linejoin="round"/>
<path d="M31.617 36.6962C29.2803 33.068 24.3513 25.413 23.3293 23.8188C22.0518 21.8261 15.1364 12.0418 14.2272 8.46761" stroke="#EA571C" stroke-width="5" stroke-linecap="round"/>
<path d="M21.0748 47.5652C18.774 46.0822 12.7371 42.7628 6.99626 41.349" stroke="#EA571C" stroke-width="5" stroke-linecap="round"/>
<path d="M43.2245 25.8667C43.2792 22.753 42.4359 18.4726 42.1271 12.139" stroke="#EA571C" stroke-width="5" stroke-linecap="round"/>
</svg>
